<?xml version="1.0" encoding="UTF-8" standalone="no"?>
<!-- Created with Inkscape (http://www.inkscape.org/) -->

<svg
   width="2000"
   height="2000"
   viewBox="0 0 529.16665 529.16666"
   version="1.1"
   id="svg1"
   inkscape:version="1.3.2 (091e20ef0f, 2023-11-25)"
   sodipodi:docname="Redot Logo - Red Orange (no outline).svg"
   inkscape:export-filename="../../Logo (profile picture)/Red Orange on Black (circle).png"
   inkscape:export-xdpi="96"
   inkscape:export-ydpi="96"
   xmlns:inkscape="http://www.inkscape.org/namespaces/inkscape"
   xmlns:sodipodi="http://sodipodi.sourceforge.net/DTD/sodipodi-0.dtd"
   xmlns:xlink="http://www.w3.org/1999/xlink"
   xmlns="http://www.w3.org/2000/svg"
   xmlns:svg="http://www.w3.org/2000/svg"
   xmlns:rdf="http://www.w3.org/1999/02/22-rdf-syntax-ns#"
   xmlns:cc="http://creativecommons.org/ns#"
   xmlns:dc="http://purl.org/dc/elements/1.1/">
  <sodipodi:namedview
     id="namedview1"
     pagecolor="#ffffff"
     bordercolor="#000000"
     borderopacity="0.25"
     inkscape:showpageshadow="2"
     inkscape:pageopacity="0.0"
     inkscape:pagecheckerboard="true"
     inkscape:deskcolor="#d1d1d1"
     inkscape:document-units="px"
     inkscape:zoom="0.22762247"
     inkscape:cx="1252.0732"
     inkscape:cy="979.69238"
     inkscape:window-width="1920"
     inkscape:window-height="938"
     inkscape:window-x="0"
     inkscape:window-y="0"
     inkscape:window-maximized="1"
     inkscape:current-layer="layer1"
     showguides="true">
    <sodipodi:guide
       position="264.58145,443.13112"
       orientation="0,-1"
       id="guide1"
       inkscape:locked="false" />
    <sodipodi:guide
       position="91.392504,233.78436"
       orientation="1,0"
       id="guide2"
       inkscape:locked="false" />
    <sodipodi:guide
       position="437.77415,233.78436"
       orientation="1,0"
       id="guide3"
       inkscape:locked="false" />
    <sodipodi:guide
       position="264.5815,86.035535"
       orientation="0,-1"
       id="guide4"
       inkscape:locked="false" />
    <sodipodi:guide
       position="264.40788,529.16666"
       orientation="0,-1"
       id="guide5"
       inkscape:locked="false" />
    <sodipodi:guide
       position="259.98792,0"
       orientation="0,-1"
       id="guide6"
       inkscape:locked="false" />
    <sodipodi:guide
       position="529.16665,272.02531"
       orientation="1,0"
       id="guide7"
       inkscape:locked="false" />
    <sodipodi:guide
       position="0,260.63898"
       orientation="1,0"
       id="guide8"
       inkscape:locked="false" />
  </sodipodi:namedview>
  <defs
     id="defs1">
    <linearGradient
       inkscape:collect="always"
       xlink:href="#linearGradient51"
       id="linearGradient81"
       gradientUnits="userSpaceOnUse"
       gradientTransform="matrix(4.2886687,0,0,4.2891931,-1829.2472,-2163.716)"
       x1="460.70163"
       y1="533.83105"
       x2="521.85077"
       y2="595.22528" />
    <linearGradient
       id="linearGradient51"
       inkscape:collect="always">
      <stop
         style="stop-color:#ff1300;stop-opacity:1"
         offset="0"
         id="stop51" />
      <stop
         style="stop-color:#ff6e01;stop-opacity:1"
         offset="1"
         id="stop52" />
    </linearGradient>
  </defs>
  <g
     inkscape:label="Layer 1"
     inkscape:groupmode="layer"
     id="layer1">
    <path
       id="path24"
       style="fill:url(#linearGradient81);fill-opacity:1;stroke-width:0.414766;font-variation-settings:normal;opacity:1;vector-effect:none;stroke:none;stroke-linecap:butt;stroke-linejoin:miter;stroke-miterlimit:4;stroke-dasharray:none;stroke-dashoffset:0;stroke-opacity:1;-inkscape-stroke:none;paint-order:stroke fill markers;stop-color:#000000;stop-opacity:1"
       d="m 218.12876,86.035536 -8.82389,27.874114 c -9.61139,4.15622 -19.22293,8.31237 -28.83308,12.47136 -10.19726,-2.14731 -20.42038,-4.6347 -30.75367,-5.88091 -1.63125,1.83553 -42.90498,65.30565 -42.89332,65.96144 1.90159,4.65581 5.16718,8.66085 7.63712,13.01778 l 150.12048,52.72623 150.12046,-52.72623 c 2.47002,-4.35693 5.73553,-8.36195 7.63712,-13.01778 0.008,-0.6557 -41.26207,-64.12591 -42.89331,-65.96144 -10.3333,1.24621 -20.55634,3.7336 -30.75368,5.88091 -9.61023,-4.15899 -19.22177,-8.31514 -28.83316,-12.47136 L 311.03602,86.035536 Z M 125.8949,218.6558 c -0.18594,-0.0571 -0.56028,0.22019 -0.57415,0.31397 -1.80821,14.74232 -5.34203,44.23697 -5.34203,44.23697 l 9.14701,39.53939 69.20181,31.43654 66.25445,-24.77366 66.25452,24.77366 69.2018,-31.43654 9.14702,-39.53939 c 0,0 -3.53382,-29.49465 -5.34203,-44.23697 -0.0163,-0.12559 -0.67691,-0.58067 -0.67691,-0.1207 -45.30224,16.10206 -92.55788,31.69645 -138.58481,47.57897 -46.02678,-15.88252 -93.28241,-31.47691 -138.58482,-47.57897 0,-0.11498 -0.0408,-0.17289 -0.10276,-0.19328 z m 34.80323,35.24044 c 21.73495,7.49674 43.64793,14.94163 65.55993,22.38561 a 35.281789,35.272028 0 0 1 -1.65791,6.74132 35.281789,35.272028 0 0 1 -45.31817,20.87012 35.281789,35.272028 0 0 1 -20.87585,-45.30567 35.281789,35.272028 0 0 1 2.292,-4.69138 z m 207.76852,0 a 35.281789,35.272028 0 0 1 2.29208,4.69137 35.281789,35.272028 0 0 1 -20.87602,45.30566 35.281789,35.272028 0 0 1 -45.31816,-20.87011 35.281789,35.272028 0 0 1 -1.65783,-6.74132 c 21.912,-7.44398 43.82507,-14.88887 65.55993,-22.3856 z m -260.45801,25.02421 -16.618015,16.46245 24.895255,87.27235 78.684,32.26667 -4.23379,-67.8905 -74.61936,-34.71509 z m 313.14758,0 -8.10825,33.39588 -74.61928,34.71509 -4.23379,67.8905 78.68401,-32.26667 24.89524,-87.27235 z m -156.57382,44.95246 -59.00389,23.34567 3.58144,73.33968 55.42245,22.57286 55.42243,-22.57286 3.58153,-73.3397 z"
       inkscape:label="Symbol" />
  </g>
  <metadata
     id="metadata3">
    <rdf:RDF>
      <cc:Work
         rdf:about="">
        <dc:creator>
          <cc:Agent>
            <dc:title>A. Irsyad</dc:title>
          </cc:Agent>
        </dc:creator>
        <dc:description>Created for Redot Engine</dc:description>
      </cc:Work>
    </rdf:RDF>
  </metadata>
</svg>
